<svg xmlns="http://www.w3.org/2000/svg" width="39.737" height="20.5" viewBox="0 0 39.737 20.5">
  <g id="Group_4" data-name="Group 4" transform="translate(-871 -618)">
    <path id="Icon_ionic-ios-arrow-round-forward" data-name="Icon ionic-ios-arrow-round-forward" d="M27.477,11.644a1.4,1.4,0,0,0-.011,1.964l6.491,6.5H9.252a1.388,1.388,0,0,0,0,2.776H33.947l-6.491,6.5a1.405,1.405,0,0,0,.011,1.964,1.382,1.382,0,0,0,1.954-.011l8.8-8.861h0a1.559,1.559,0,0,0,.288-.438,1.324,1.324,0,0,0,.107-.534,1.392,1.392,0,0,0-.4-.972l-8.8-8.861A1.36,1.36,0,0,0,27.477,11.644Z" transform="translate(872.125 606.748)" fill="#707070"/>
    <circle id="Ellipse_7" data-name="Ellipse 7" cx="1.5" cy="1.5" r="1.5" transform="translate(871 627)" fill="#707070"/>
  </g>
</svg>
