<svg id="Search" xmlns="http://www.w3.org/2000/svg" width="27.33" height="27.33" viewBox="0 0 27.33 27.33">
  <path id="Icon_open-magnifying-glass" data-name="Icon open-magnifying-glass" d="M11.85-.011a11.85,11.85,0,0,0,0,23.7A11.712,11.712,0,0,0,17.47,22.3a3.386,3.386,0,0,0,.44.44L21.3,26.126a3.453,3.453,0,1,0,4.875-4.875l-3.386-3.386a3.386,3.386,0,0,0-.542-.44,11.69,11.69,0,0,0,1.49-5.62A11.863,11.863,0,0,0,11.883-.045Zm0,3.386a8.424,8.424,0,0,1,8.464,8.464,8.49,8.49,0,0,1-2.234,5.823l-.1.1a3.386,3.386,0,0,0-.44.44,8.472,8.472,0,0,1-5.722,2.133,8.464,8.464,0,0,1,0-16.928Z" transform="translate(0 0.045)" fill="#F4F4F4"/>
</svg>
